<mxfile host="Electron" modified="2023-05-11T03:48:33.723Z" agent="Mozilla/5.0 (Windows NT 10.0; Win64; x64) AppleWebKit/537.36 (KHTML, like Gecko) draw.io/21.2.8 Chrome/112.0.5615.165 Electron/24.2.0 Safari/537.36" etag="D_oRNGJbMJCtAZtxk8s1" version="21.2.8" type="device">
  <diagram name="페이지-1" id="Jw_VSQ_Z35y2hl4-dUQj">
    <mxGraphModel dx="862" dy="1900" grid="1" gridSize="10" guides="1" tooltips="1" connect="1" arrows="1" fold="1" page="1" pageScale="1" pageWidth="827" pageHeight="1169" math="0" shadow="0">
      <root>
        <mxCell id="0" />
        <mxCell id="1" parent="0" />
        <mxCell id="ctPcMZ8cNtCoBixHX1E7-16" value="&lt;p style=&quot;border-color: var(--border-color); text-align: center; margin: 4px 0px 0px;&quot;&gt;&lt;font style=&quot;font-size: 24px;&quot;&gt;&lt;span style=&quot;background-color: initial; border-color: var(--border-color);&quot;&gt;User Interface::EmploymentinfoUI&lt;/span&gt;&lt;/font&gt;&lt;/p&gt;&lt;br&gt;&lt;hr style=&quot;font-size: 18px;&quot; size=&quot;1&quot;&gt;&lt;p style=&quot;margin: 0px 0px 0px 4px; font-size: 18px;&quot;&gt;&lt;font style=&quot;font-size: 18px;&quot;&gt;&lt;br&gt;&lt;/font&gt;&lt;/p&gt;&lt;hr size=&quot;1&quot;&gt;&lt;p style=&quot;border-color: var(--border-color); margin: 0px 0px 0px 4px; font-size: 16px;&quot;&gt;&lt;font style=&quot;font-size: 16px;&quot;&gt;&lt;font style=&quot;border-color: var(--border-color); text-align: center; font-size: 16px;&quot;&gt;startinterface&lt;/font&gt;&lt;/font&gt;&lt;/p&gt;&lt;p style=&quot;border-color: var(--border-color); margin: 0px 0px 0px 4px; font-size: 16px;&quot;&gt;&lt;font style=&quot;font-size: 16px;&quot;&gt;&lt;font style=&quot;border-color: var(--border-color); text-align: center; font-size: 16px;&quot;&gt;searchEmployment_bypart()&lt;/font&gt;&lt;/font&gt;&lt;/p&gt;&lt;p style=&quot;border-color: var(--border-color); margin: 0px 0px 0px 4px; font-size: 16px;&quot;&gt;&lt;font style=&quot;text-align: center; background-color: initial;&quot;&gt;showEmployment_bypart&lt;/font&gt;&lt;span style=&quot;text-align: center; background-color: initial;&quot;&gt;()&lt;/span&gt;&lt;/p&gt;&lt;font style=&quot;font-size: 16px;&quot;&gt;&lt;br&gt;&lt;/font&gt;" style="verticalAlign=top;align=left;overflow=fill;fontSize=12;fontFamily=Helvetica;html=1;whiteSpace=wrap;" parent="1" vertex="1">
          <mxGeometry x="44" y="-180" width="616" height="210" as="geometry" />
        </mxCell>
        <mxCell id="ctPcMZ8cNtCoBixHX1E7-17" value="&lt;p style=&quot;border-color: var(--border-color); text-align: center; margin: 4px 0px 0px; font-size: 24px;&quot;&gt;&lt;font style=&quot;font-size: 24px;&quot;&gt;&lt;font style=&quot;font-size: 24px;&quot;&gt;&lt;span style=&quot;background-color: initial;&quot;&gt;Control::&lt;/span&gt;&lt;/font&gt;&lt;span style=&quot;background-color: initial;&quot;&gt;Employmentinfo&lt;/span&gt;&lt;/font&gt;&lt;/p&gt;&lt;hr style=&quot;font-size: 24px;&quot; size=&quot;1&quot;&gt;&lt;p style=&quot;margin:0px;margin-left:4px;&quot;&gt;&lt;font size=&quot;3&quot;&gt;&lt;br&gt;&lt;/font&gt;&lt;/p&gt;&lt;hr size=&quot;1&quot;&gt;&lt;p style=&quot;border-color: var(--border-color); margin: 0px 0px 0px 4px; font-size: 16px;&quot;&gt;&lt;font style=&quot;font-size: 16px;&quot;&gt;&lt;font style=&quot;border-color: var(--border-color); text-align: center; font-size: 16px;&quot;&gt;show&lt;/font&gt;&lt;font style=&quot;border-color: var(--border-color); text-align: center; font-size: 16px;&quot;&gt;Employment_bypart()&lt;/font&gt;&lt;br&gt;&lt;/font&gt;&lt;/p&gt;&lt;p style=&quot;border-color: var(--border-color); margin: 0px 0px 0px 4px; font-size: 16px;&quot;&gt;&lt;font style=&quot;font-size: 16px;&quot;&gt;&lt;font style=&quot;border-color: var(--border-color); text-align: center; font-size: 16px;&quot;&gt;getEmploymentDetails_bypart()&lt;/font&gt;&lt;/font&gt;&lt;/p&gt;&lt;p style=&quot;border-color: var(--border-color); margin: 0px 0px 0px 4px; font-size: 16px;&quot;&gt;&lt;font style=&quot;font-size: 16px;&quot;&gt;&lt;font style=&quot;border-color: var(--border-color); text-align: center; font-size: 16px;&quot;&gt;printEmploymentDetails_bypart()&lt;/font&gt;&lt;/font&gt;&lt;/p&gt;" style="verticalAlign=top;align=left;overflow=fill;fontSize=12;fontFamily=Helvetica;html=1;whiteSpace=wrap;" parent="1" vertex="1">
          <mxGeometry x="820" y="-180" width="530" height="205" as="geometry" />
        </mxCell>
        <mxCell id="ctPcMZ8cNtCoBixHX1E7-18" value="&lt;p style=&quot;border-color: var(--border-color); text-align: center; margin: 4px 0px 0px;&quot;&gt;&lt;font style=&quot;font-size: 24px;&quot;&gt;currentApply&lt;/font&gt;&lt;/p&gt;&lt;hr size=&quot;1&quot;&gt;&lt;p style=&quot;margin: 0px 0px 0px 4px; font-size: 16px;&quot;&gt;&lt;font style=&quot;font-size: 16px;&quot;&gt;NameEployment&lt;/font&gt;&lt;/p&gt;&lt;p style=&quot;margin: 0px 0px 0px 4px; font-size: 16px;&quot;&gt;&lt;font style=&quot;font-size: 16px;&quot;&gt;company&lt;/font&gt;&lt;/p&gt;&lt;hr size=&quot;1&quot;&gt;&lt;p style=&quot;border-color: var(--border-color); margin: 0px 0px 0px 4px; font-size: 16px;&quot;&gt;&lt;/p&gt;&lt;font style=&quot;font-size: 16px;&quot;&gt;&amp;nbsp;&lt;font style=&quot;border-color: var(--border-color); text-align: center; font-size: 16px;&quot;&gt;getApplynum&lt;/font&gt;()&lt;br&gt;&amp;nbsp;Applysum_monthly()&lt;br&gt;&lt;/font&gt;" style="verticalAlign=top;align=left;overflow=fill;fontSize=12;fontFamily=Helvetica;html=1;whiteSpace=wrap;" parent="1" vertex="1">
          <mxGeometry x="50" y="315" width="370" height="205" as="geometry" />
        </mxCell>
        <mxCell id="ctPcMZ8cNtCoBixHX1E7-20" value="&lt;p style=&quot;border-color: var(--border-color); text-align: center; margin: 4px 0px 0px;&quot;&gt;&lt;span style=&quot;background-color: initial;&quot;&gt;&lt;font style=&quot;font-size: 24px;&quot;&gt;EmploymentDetails&lt;/font&gt;&lt;/span&gt;&lt;/p&gt;&lt;hr size=&quot;1&quot;&gt;&lt;p style=&quot;border-color: var(--border-color); margin: 0px 0px 0px 4px; font-size: 16px;&quot;&gt;date&lt;/p&gt;&lt;p style=&quot;border-color: var(--border-color); margin: 0px 0px 0px 4px; font-size: 16px;&quot;&gt;Datelimit&lt;/p&gt;&lt;p style=&quot;border-color: var(--border-color); margin: 0px 0px 0px 4px; font-size: 16px;&quot;&gt;people&lt;/p&gt;&lt;p style=&quot;border-color: var(--border-color); margin: 0px 0px 0px 4px; font-size: 16px;&quot;&gt;Peoplelimit&lt;/p&gt;&lt;p style=&quot;border-color: var(--border-color); margin: 0px 0px 0px 4px; font-size: 16px;&quot;&gt;part&lt;/p&gt;&lt;hr style=&quot;font-size: 16px;&quot; size=&quot;1&quot;&gt;&lt;p style=&quot;border-color: var(--border-color); margin: 0px 0px 0px 4px; font-size: 16px;&quot;&gt;getEmploymetnDetails_bypart()&lt;/p&gt;&lt;p style=&quot;border-color: var(--border-color); margin: 0px 0px 0px 4px; font-size: 16px;&quot;&gt;EmploymentDetailsSum_bypart()&lt;/p&gt;&lt;p style=&quot;border-color: var(--border-color); margin: 0px 0px 0px 4px; font-size: 16px;&quot;&gt;&lt;font style=&quot;font-size: 16px;&quot;&gt;&lt;font style=&quot;border-color: var(--border-color); text-align: center; font-size: 16px;&quot;&gt;&lt;br&gt;&lt;/font&gt;&lt;/font&gt;&lt;/p&gt;" style="verticalAlign=top;align=left;overflow=fill;fontSize=12;fontFamily=Helvetica;html=1;whiteSpace=wrap;" parent="1" vertex="1">
          <mxGeometry x="831.5" y="310" width="370" height="215" as="geometry" />
        </mxCell>
        <mxCell id="ctPcMZ8cNtCoBixHX1E7-22" value="&lt;p style=&quot;border-color: var(--border-color); text-align: center; margin: 4px 0px 0px;&quot;&gt;&lt;font style=&quot;&quot;&gt;&lt;span style=&quot;background-color: initial; border-color: var(--border-color);&quot;&gt;&lt;font style=&quot;font-size: 18px;&quot;&gt;User Interface::EmploymentInquiryAndApplyUI&lt;/font&gt;&lt;/span&gt;&lt;br&gt;&lt;/font&gt;&lt;/p&gt;&lt;hr size=&quot;1&quot;&gt;&lt;p style=&quot;margin:0px;margin-left:4px;&quot;&gt;&lt;font size=&quot;3&quot;&gt;&lt;br&gt;&lt;/font&gt;&lt;/p&gt;&lt;hr size=&quot;1&quot;&gt;&lt;p style=&quot;border-color: var(--border-color); margin: 0px 0px 0px 4px; font-size: 16px;&quot;&gt;&lt;font style=&quot;font-size: 16px;&quot;&gt;&amp;nbsp;&lt;/font&gt;&lt;font style=&quot;font-size: 16px;&quot;&gt;startInterface()&lt;br&gt;&lt;/font&gt;&lt;/p&gt;&lt;p style=&quot;border-color: var(--border-color); margin: 0px 0px 0px 4px; font-size: 16px;&quot;&gt;&lt;font style=&quot;font-size: 16px;&quot;&gt;&amp;nbsp;searchApply_monthly()&lt;/font&gt;&lt;/p&gt;&lt;p style=&quot;border-color: var(--border-color); margin: 0px 0px 0px 4px; font-size: 16px;&quot;&gt;&lt;font style=&quot;font-size: 16px;&quot;&gt;&amp;nbsp;showApply_monthly()&lt;/font&gt;&lt;/p&gt;" style="verticalAlign=top;align=left;overflow=fill;fontSize=12;fontFamily=Helvetica;html=1;whiteSpace=wrap;" parent="1" vertex="1">
          <mxGeometry x="30" y="90" width="545" height="210" as="geometry" />
        </mxCell>
        <mxCell id="ctPcMZ8cNtCoBixHX1E7-23" value="&lt;p style=&quot;border-color: var(--border-color); text-align: center; margin: 4px 0px 0px;&quot;&gt;&lt;font style=&quot;font-size: 24px;&quot;&gt;&lt;span style=&quot;background-color: initial;&quot;&gt;Control::EmploymentInquiryAndApply&lt;/span&gt;&lt;br&gt;&lt;/font&gt;&lt;/p&gt;&lt;hr size=&quot;1&quot;&gt;&lt;p style=&quot;margin:0px;margin-left:4px;&quot;&gt;&lt;font size=&quot;3&quot;&gt;&lt;br&gt;&lt;/font&gt;&lt;/p&gt;&lt;hr size=&quot;1&quot;&gt;&lt;p style=&quot;border-color: var(--border-color); margin: 0px 0px 0px 4px; font-size: 16px;&quot;&gt;&lt;font style=&quot;font-size: 16px;&quot;&gt;showApply_monthly()&lt;br&gt;&lt;/font&gt;&lt;/p&gt;&lt;p style=&quot;border-color: var(--border-color); margin: 0px 0px 0px 4px; font-size: 16px;&quot;&gt;&lt;font style=&quot;font-size: 16px;&quot;&gt;getApplynum()&lt;/font&gt;&lt;/p&gt;&lt;p style=&quot;border-color: var(--border-color); margin: 0px 0px 0px 4px; font-size: 16px;&quot;&gt;&lt;span style=&quot;background-color: initial; text-align: center;&quot;&gt;Applysum_monthly()&lt;/span&gt;&lt;/p&gt;" style="verticalAlign=top;align=left;overflow=fill;fontSize=12;fontFamily=Helvetica;html=1;whiteSpace=wrap;" parent="1" vertex="1">
          <mxGeometry x="820" y="90" width="500" height="170" as="geometry" />
        </mxCell>
        <mxCell id="ctPcMZ8cNtCoBixHX1E7-30" value="" style="ellipse;shape=umlEntity;whiteSpace=wrap;html=1;" parent="1" vertex="1">
          <mxGeometry x="384" y="315" width="30" height="30" as="geometry" />
        </mxCell>
        <mxCell id="ctPcMZ8cNtCoBixHX1E7-31" value="" style="ellipse;shape=umlEntity;whiteSpace=wrap;html=1;" parent="1" vertex="1">
          <mxGeometry x="1150" y="315" width="30" height="30" as="geometry" />
        </mxCell>
        <mxCell id="ctPcMZ8cNtCoBixHX1E7-33" value="" style="shape=umlBoundary;whiteSpace=wrap;html=1;" parent="1" vertex="1">
          <mxGeometry x="610" y="-175" width="30" height="30" as="geometry" />
        </mxCell>
        <mxCell id="ctPcMZ8cNtCoBixHX1E7-34" value="" style="shape=umlBoundary;whiteSpace=wrap;html=1;" parent="1" vertex="1">
          <mxGeometry x="510" y="90" width="30" height="30" as="geometry" />
        </mxCell>
        <mxCell id="ctPcMZ8cNtCoBixHX1E7-36" value="" style="ellipse;shape=umlControl;whiteSpace=wrap;html=1;" parent="1" vertex="1">
          <mxGeometry x="1300" y="-180" width="30" height="30" as="geometry" />
        </mxCell>
        <mxCell id="ctPcMZ8cNtCoBixHX1E7-37" value="" style="ellipse;shape=umlControl;whiteSpace=wrap;html=1;" parent="1" vertex="1">
          <mxGeometry x="1280" y="90" width="30" height="30" as="geometry" />
        </mxCell>
      </root>
    </mxGraphModel>
  </diagram>
</mxfile>
